<?xml version="1.0" encoding="UTF-8"?>
<mxfile host="app.diagrams.net" modified="2025-01-28T20:00:00.000Z" agent="5.0" etag="xxx" version="22.1.16" type="device">
  <diagram name="Reverse Connection Handshake" id="reverse-conn-handshake">
    <mxGraphModel dx="1422" dy="794" grid="1" gridSize="10" guides="1" tooltips="1" connect="1" arrows="1" fold="1" page="1" pageScale="1" pageWidth="1169" pageHeight="827" math="0" shadow="0">
      <root>
        <mxCell id="0" />
        <mxCell id="1" parent="0" />
        
        <!-- Downstream Envoy -->
        <mxCell id="downstream" value="Downstream Envoy" style="rounded=1;whiteSpace=wrap;html=1;fillColor=#dae8fc;strokeColor=#6c8ebf;" vertex="1" parent="1">
          <mxGeometry x="40" y="200" width="120" height="60" as="geometry" />
        </mxCell>
        
        <!-- Reverse Tunnel IOHandle -->
        <mxCell id="iohandle" value="Reverse Tunnel&#xa;IOHandle" style="rounded=1;whiteSpace=wrap;html=1;fillColor=#fff2cc;strokeColor=#d6b656;" vertex="1" parent="1">
          <mxGeometry x="40" y="320" width="120" height="60" as="geometry" />
        </mxCell>
        
        <!-- RCConnectionWrapper -->
        <mxCell id="rcwrapper" value="RCConnectionWrapper" style="rounded=1;whiteSpace=wrap;html=1;fillColor=#fff2cc;strokeColor=#d6b656;" vertex="1" parent="1">
          <mxGeometry x="40" y="420" width="120" height="60" as="geometry" />
        </mxCell>
        
        <!-- Upstream Envoy -->
        <mxCell id="upstream" value="Upstream Envoy" style="rounded=1;whiteSpace=wrap;html=1;fillColor=#d5e8d4;strokeColor=#82b366;" vertex="1" parent="1">
          <mxGeometry x="800" y="200" width="120" height="60" as="geometry" />
        </mxCell>
        
        <!-- Reverse Conn Filter -->
        <mxCell id="filter" value="Reverse Conn&#xa;Filter" style="rounded=1;whiteSpace=wrap;html=1;fillColor=#d5e8d4;strokeColor=#82b366;" vertex="1" parent="1">
          <mxGeometry x="800" y="320" width="120" height="60" as="geometry" />
        </mxCell>
        
        <!-- SimpleConnReadFilter -->
        <mxCell id="readfilter" value="SimpleConnReadFilter" style="rounded=1;whiteSpace=wrap;html=1;fillColor=#d5e8d4;strokeColor=#82b366;" vertex="1" parent="1">
          <mxGeometry x="800" y="420" width="120" height="60" as="geometry" />
        </mxCell>
        
        <!-- TCP Connection -->
        <mxCell id="tcp" value="TCP Connection" style="ellipse;whiteSpace=wrap;html=1;fillColor=#f8cecc;strokeColor=#b85450;" vertex="1" parent="1">
          <mxGeometry x="400" y="300" width="120" height="80" as="geometry" />
        </mxCell>
        
        <!-- Handshake Request -->
        <mxCell id="request" value="HTTP POST&#xa;ReverseConnHandshakeArg&#xa;(node_id, cluster_id)" style="rounded=1;whiteSpace=wrap;html=1;fillColor=#e1d5e7;strokeColor=#9673a6;" vertex="1" parent="1">
          <mxGeometry x="300" y="200" width="200" height="60" as="geometry" />
        </mxCell>
        
        <!-- Response -->
        <mxCell id="response" value="ReverseConnHandshakeRet&#xa;REJECTED/ACCEPTED" style="rounded=1;whiteSpace=wrap;html=1;fillColor=#e1d5e7;strokeColor=#9673a6;" vertex="1" parent="1">
          <mxGeometry x="300" y="500" width="200" height="60" as="geometry" />
        </mxCell>
        
        <!-- Arrows -->
        <!-- IOHandle to RCConnectionWrapper -->
        <mxCell id="arrow1" value="" style="endArrow=classic;html=1;rounded=0;" edge="1" parent="1" source="iohandle" target="rcwrapper">
          <mxGeometry width="50" height="50" relative="1" as="geometry">
            <mxPoint x="100" y="380" as="sourcePoint" />
            <mxPoint x="100" y="420" as="targetPoint" />
          </mxGeometry>
        </mxCell>
        
        <!-- RCConnectionWrapper to TCP -->
        <mxCell id="arrow2" value="connect()" style="endArrow=classic;html=1;rounded=0;" edge="1" parent="1" source="rcwrapper" target="tcp">
          <mxGeometry width="50" height="50" relative="1" as="geometry">
            <mxPoint x="160" y="450" as="sourcePoint" />
            <mxPoint x="400" y="340" as="targetPoint" />
          </mxGeometry>
        </mxCell>
        
        <!-- TCP to Request -->
        <mxCell id="arrow3" value="" style="endArrow=classic;html=1;rounded=0;" edge="1" parent="1" source="tcp" target="request">
          <mxGeometry width="50" height="50" relative="1" as="geometry">
            <mxPoint x="400" y="260" as="sourcePoint" />
            <mxPoint x="400" y="260" as="targetPoint" />
          </mxGeometry>
        </mxCell>
        
        <!-- Request to Upstream -->
        <mxCell id="arrow4" value="" style="endArrow=classic;html=1;rounded=0;" edge="1" parent="1" source="request" target="upstream">
          <mxGeometry width="50" height="50" relative="1" as="geometry">
            <mxPoint x="500" y="230" as="sourcePoint" />
            <mxPoint x="800" y="230" as="targetPoint" />
          </mxGeometry>
        </mxCell>
        
        <!-- Upstream to Filter -->
        <mxCell id="arrow5" value="" style="endArrow=classic;html=1;rounded=0;" edge="1" parent="1" source="upstream" target="filter">
          <mxGeometry width="50" height="50" relative="1" as="geometry">
            <mxPoint x="860" y="260" as="sourcePoint" />
            <mxPoint x="860" y="320" as="targetPoint" />
          </mxGeometry>
        </mxCell>
        
        <!-- Filter to ReadFilter -->
        <mxCell id="arrow6" value="" style="endArrow=classic;html=1;rounded=0;" edge="1" parent="1" source="filter" target="readfilter">
          <mxGeometry width="50" height="50" relative="1" as="geometry">
            <mxPoint x="860" y="380" as="sourcePoint" />
            <mxPoint x="860" y="420" as="targetPoint" />
          </mxGeometry>
        </mxCell>
        
        <!-- ReadFilter to Response -->
        <mxCell id="arrow7" value="" style="endArrow=classic;html=1;rounded=0;" edge="1" parent="1" source="readfilter" target="response">
          <mxGeometry width="50" height="50" relative="1" as="geometry">
            <mxPoint x="800" y="480" as="sourcePoint" />
            <mxPoint x="500" y="560" as="targetPoint" />
          </mxGeometry>
        </mxCell>
        
        <!-- Response to TCP -->
        <mxCell id="arrow8" value="" style="endArrow=classic;html=1;rounded=0;" edge="1" parent="1" source="response" target="tcp">
          <mxGeometry width="50" height="50" relative="1" as="geometry">
            <mxPoint x="400" y="560" as="sourcePoint" />
            <mxPoint x="400" y="380" as="targetPoint" />
          </mxGeometry>
        </mxCell>
        
        <!-- TCP to RCConnectionWrapper -->
        <mxCell id="arrow9" value="" style="endArrow=classic;html=1;rounded=0;" edge="1" parent="1" source="tcp" target="rcwrapper">
          <mxGeometry width="50" height="50" relative="1" as="geometry">
            <mxPoint x="460" y="450" as="sourcePoint" />
            <mxPoint x="160" y="450" as="targetPoint" />
          </mxGeometry>
        </mxCell>
        
        <!-- Labels -->
        <mxCell id="label1" value="1. Initiate handshake" style="text;html=1;strokeColor=none;fillColor=none;align=left;verticalAlign=middle;whiteSpace=wrap;rounded=0;" vertex="1" parent="1">
          <mxGeometry x="200" y="150" width="120" height="30" as="geometry" />
        </mxCell>
        
        <mxCell id="label2" value="2. Serialize HTTP POST with&#xa;ReverseConnHandshakeArg" style="text;html=1;strokeColor=none;fillColor=none;align=left;verticalAlign=middle;whiteSpace=wrap;rounded=0;" vertex="1" parent="1">
          <mxGeometry x="200" y="180" width="150" height="40" as="geometry" />
        </mxCell>
        
        <mxCell id="label3" value="3. Verify node_id" style="text;html=1;strokeColor=none;fillColor=none;align=left;verticalAlign=middle;whiteSpace=wrap;rounded=0;" vertex="1" parent="1">
          <mxGeometry x="650" y="150" width="100" height="30" as="geometry" />
        </mxCell>
        
        <mxCell id="label4" value="4. Return REJECTED/ACCEPTED" style="text;html=1;strokeColor=none;fillColor=none;align=left;verticalAlign=middle;whiteSpace=wrap;rounded=0;" vertex="1" parent="1">
          <mxGeometry x="200" y="580" width="150" height="30" as="geometry" />
        </mxCell>
        
        <mxCell id="label5" value="5. SimpleConnReadFilter&#xa;receives response" style="text;html=1;strokeColor=none;fillColor=none;align=left;verticalAlign=middle;whiteSpace=wrap;rounded=0;" vertex="1" parent="1">
          <mxGeometry x="650" y="580" width="150" height="40" as="geometry" />
        </mxCell>
        
      </root>
    </mxGraphModel>
  </diagram>
</mxfile> 